<svg xmlns="http://www.w3.org/2000/svg" viewBox="0 0 491.557 365.866" width="491.557" height="365.866" xmlns:xlink="http://www.w3.org/1999/xlink" version="1.1"><g transform="translate(6.30159 1.00203)"><g style="mix-blend-mode: normal" fill-rule="nonzero" stroke-dasharray="" stroke-dashoffset="0" stroke-linecap="butt" stroke-linejoin="miter" stroke-miterlimit="10" data-paper-data="{&quot;isPaintingLayer&quot;:true}"><path id="ID0.3961414685472846" fill="#99ffff" stroke="#ccffff" stroke-width="2.00406" d="M 0.05 0 h 480.942 v 290 l -479.988 -15 Z"/><path id="ID0.42040406772866845" fill="#00cc44" stroke="#00cc44" stroke-width="2.88235" d="M 444.991 247.426 c 12.053 -0.534 25.619 4.246 33.003 13.548 c 7.863 9.859 5.709 24.563 5.044 37.038 c 0.324 12.836 1.653 27.539 -6.053 37.975 c -7.119 9.666 -20.087 16.72 -31.994 16.645 c -17.713 -0.111 -37.896 -5.894 -50.94 -15.416 c -13.044 -9.523 -21.119 -22.674 -21.119 -37.187 c 0 -14.512 8.075 -27.663 21.119 -37.186 c 13.044 -9.522 33.24 -14.646 50.94 -15.417 Z"/><path id="ID0.42040406772866845" fill="#00cc44" stroke="#00cc44" stroke-width="2.06637" d="M 80.0176 237.576 c 15.418 0 29.3884 3.85 39.5044 10.068 c 10.116 6.22 16.378 14.808 16.378 24.285 c 0 9.478 -6.262 18.066 -16.378 24.286 c -10.116 6.218 -24.0864 10.067 -39.5044 10.067 c -15.4179 0 -29.3885 -3.849 -39.5043 -10.067 c -10.1158 -6.22 -16.378 -14.808 -16.378 -24.286 c 0 -9.477 6.2622 -18.065 16.378 -24.285 c 10.1158 -6.218 24.0864 -10.068 39.5043 -10.068 Z"/><path id="ID0.42040406772866845" fill="#00cc44" stroke="#00cc44" stroke-width="2.88235" d="M 193.491 229.876 c 19.881 0 37.896 5.895 50.94 15.417 c 13.044 9.523 21.119 22.674 21.119 37.186 c 0 14.513 -8.075 27.664 -21.119 37.187 c -13.044 9.522 -31.059 15.416 -50.94 15.416 c -19.881 0 -37.896 -5.894 -50.94 -15.416 c -13.044 -9.523 -21.119 -22.674 -21.119 -37.187 c 0 -14.512 8.075 -27.663 21.119 -37.186 c 13.044 -9.522 31.059 -15.417 50.94 -15.417 Z"/><path id="ID0.42040406772866845" fill="#00cc44" stroke="#00cc44" stroke-width="2.88235" d="M 321.491 237.876 c 19.881 0 37.896 5.895 50.94 15.417 c 13.044 9.523 21.119 22.674 21.119 37.186 c 0 14.513 -8.075 27.664 -21.119 37.187 c -13.044 9.522 -31.059 15.416 -50.94 15.416 c -19.881 0 -37.896 -5.894 -50.94 -15.416 c -13.044 -9.523 -21.119 -22.674 -21.119 -37.187 c 0 -14.512 8.075 -27.663 21.119 -37.186 c 13.044 -9.522 31.059 -15.417 50.94 -15.417 Z"/><path id="ID0.42040406772866845" fill="#00cc44" stroke="#00cc44" stroke-width="1.65923" d="M -2.00188 244.997 c 5.94523 -3.213 16.1986 10.321 22.5887 19.197 c 4.8153 6.674 10.2653 14.986 10.2653 24.285 c 0 9.3 -4.0322 20.247 -10.2653 24.286 l -20.5922 -3.768 l -0.98071 -34.965 c -0.32154 -11.643 -5.85697 -27.329 -1.01574 -29.035 Z"/><path id="ID0.03885363461449742" fill="#00cc44" stroke="#00cc44" stroke-width="2" d="M 2 279 l 470 -3 l 8 60 l -480 5 Z"/><path id="ID0.33250138349831104" fill="#663b00" stroke="#663b00" stroke-width="2.62812" d="M -4.98753 338.617 h 484.975 v 24.933 h -484.975 Z"/><text font-family="Sans Serif" font-size="40px" font-weight="normal" style="mix-blend-mode: normal" fill="#f1f1f1" fill-rule="nonzero" stroke="none" stroke-dasharray="" stroke-dashoffset="0" stroke-linecap="butt" stroke-linejoin="miter" stroke-miterlimit="10" stroke-width="1" text-anchor="start" transform="translate(57.9134 336.465) scale(0.73835, 1.34507)" xml:space="preserve"><tspan x="0" dy="0">odd and even numbers game</tspan></text></g></g></svg>