<svg xmlns="http://www.w3.org/2000/svg" viewBox="0 0 73.2283 137.355" width="73.2283" height="137.355" xmlns:xlink="http://www.w3.org/1999/xlink" version="1.1"><defs><linearGradient id="color-1" gradientUnits="userSpaceOnUse" x1="238.973" y1="175.312" x2="237.989" y2="225.636"><stop stop-color="rgb(127, 63, 152)" offset="0"/><stop stop-color="rgb(102, 0, 204)" offset="1"/></linearGradient><radialGradient id="color-2" gradientUnits="userSpaceOnUse" cx="248.481" cy="115.529" r="76.5"><stop stop-color="rgb(219, 80, 240)" offset="0"/><stop stop-color="rgb(127, 63, 152)" offset="1"/></radialGradient></defs><g transform="translate(-211.167 -88.4862)"><g style="mix-blend-mode: normal" fill-rule="nonzero" stroke-dasharray="" stroke-dashoffset="0" stroke-linejoin="miter" stroke-miterlimit="10" data-paper-data="{&quot;isPaintingLayer&quot;:true}"><g id="ID0.8842033431865275"><g id="ID0.9813417503610253" fill="url(#color-1)" stroke="none" stroke-linecap="butt" stroke-width="1"><g id="ID0.6985900145955384"><path id="ID0.020438293926417828" d="M 242.827 175.388 c -0.8236 0.9431 0.7576 4.0196 -0.0968 4.9991 c -1.0926 1.2519 -2.2616 2.5703 -2.9201 4.1207 c -0.8188 1.9256 -0.0198 2.4466 -0.6988 -0.0157 c 0.3876 1.4049 1.1292 2.8153 2.4692 3.5413 c 2.6218 1.419 5.1437 0.474 5.4564 -2.6251 c -0.035 1.6371 -0.069 3.2721 -0.103 4.9101 c -0.0273 -1.162 0.287 -3.375 -1.2947 -1.82 c -0.8016 0.788 -1.6147 1.604 -2.0703 2.657 c -0.8884 2.053 -1.1827 1.658 -0.3339 3.824 c 0.3982 1.018 0.8043 2.091 1.5016 2.953 c 0.0361 0.046 2.2629 2.325 2.2794 1.842 c 0.0371 -1.078 0.1893 -2.009 0.7269 -2.953 c -0.0326 1.667 -0.0652 3.332 -0.0978 4.999 c -7.2851 5.254 -4.3895 13.077 0.9612 19.022 c 0.8311 0.924 -0.8936 4.115 -0.0977 4.999 c -6.131 -6.813 -9.5269 -22.702 -0.7657 -29.02 c -0.7406 0.534 0.4201 4.09 -0.0978 4.999 c -0.5645 0.991 -0.6728 1.825 -0.7124 2.979 c -0.0012 0.113 -0.0075 0.228 -0.0197 0.341 c -4.9747 -3.746 -4.7328 -10.08 -4.236 -15.687 c 0.1746 -1.975 4.237 -9.3186 4.3454 -4.7366 c 0.0436 1.8626 0.0279 3.7416 -0.0755 5.6016 c -0.3055 5.44 -7.2926 3.484 -7.9344 -0.827 c -0.7884 -5.3077 0.2439 -10.0154 3.8145 -14.1034 Z"/></g></g><path id="ID0.444075814448297" fill="none" stroke="#6600cc" stroke-linecap="round" stroke-width="2" d="M 248.35 197.85 c 0 0 0.109 3.016 -0.1 4.5 c -0.096 0.68 -0.8 1.9 -0.8 1.9"/></g><path id="ID0.790923397988081" fill="url(#color-2)" stroke="none" stroke-linecap="butt" stroke-width="1" d="M 283.868 138.639 c -3.4047 24.7997 -33.0129 42.6341 -41.9529 42.3247 c -9.7491 -0.3369 -33.8249 -27.4598 -30.4213 -52.2614 c 3.4057 -24.7998 22.3672 -42.6811 42.3521 -39.9377 c 19.9848 2.7434 33.4267 25.0746 30.0221 49.8744 Z"/><text font-family="Sans Serif" font-size="40px" font-weight="normal" style="mix-blend-mode: normal" fill="#ffffff" fill-rule="nonzero" stroke="none" stroke-dasharray="" stroke-dashoffset="0" stroke-linecap="butt" stroke-linejoin="miter" stroke-miterlimit="10" stroke-width="1" text-anchor="start" transform="translate(235.266 142.353) scale(1.17566)" xml:space="preserve"><tspan x="0" dy="0">2</tspan></text></g></g></svg>